HIERARCHY
ROOT Hips
{
 OFFSET 0.000000 0.000000 0.000000
 CHANNELS 6 Xposition Yposition Zposition Yrotation Xrotation Zrotation
 JOINT Chest
 {
  OFFSET 0.000000 9.585900 0.002600
  CHANNELS 3 Yrotation Xrotation Zrotation
  JOINT Chest2
  {
   OFFSET 0.000000 9.601200 -0.005300
   CHANNELS 3 Yrotation Xrotation Zrotation
   JOINT Chest3
   {
    OFFSET 0.000000 9.561800 0.000000
    CHANNELS 3 Yrotation Xrotation Zrotation
    JOINT Chest4
    {
     OFFSET 0.000000 9.552100 0.000000
     CHANNELS 3 Yrotation Xrotation Zrotation
     JOINT Neck
     {
      OFFSET 0.000000 14.453000 0.000000
      CHANNELS 3 Yrotation Xrotation Zrotation
      JOINT Head
      {
       OFFSET 0.000000 8.936500 -0.011300
       CHANNELS 3 Yrotation Xrotation Zrotation
       End Site
       {
        OFFSET 0.000000 17.073600 -0.006000
       }
      }
     }
     JOINT RightCollar
     {
      OFFSET -2.921100 9.558500 0.000000
      CHANNELS 3 Yrotation Xrotation Zrotation
      JOINT RightShoulder
      {
       OFFSET -13.519700 0.000000 0.000000
       CHANNELS 3 Yrotation Xrotation Zrotation
       JOINT RightElbow
       {
        OFFSET 0.000000 -29.696600 0.000000
        CHANNELS 3 Yrotation Xrotation Zrotation
        JOINT RightWrist
        {
         OFFSET 0.000000 -24.004700 0.000000
         CHANNELS 3 Yrotation Xrotation Zrotation
         End Site
         {
          OFFSET 0.000000 -17.728500 0.000000
         }
        }
       }
      }
     }
     JOINT LeftCollar
     {
      OFFSET 2.921100 9.558500 0.000000
      CHANNELS 3 Yrotation Xrotation Zrotation
      JOINT LeftShoulder
      {
       OFFSET 13.519700 0.000000 0.000000
       CHANNELS 3 Yrotation Xrotation Zrotation
       JOINT LeftElbow
       {
        OFFSET 0.000000 -29.696600 0.000000
        CHANNELS 3 Yrotation Xrotation Zrotation
        JOINT LeftWrist
        {
         OFFSET 0.000000 -24.004700 0.000000
         CHANNELS 3 Yrotation Xrotation Zrotation
         End Site
         {
          OFFSET 0.000000 -17.728500 0.000000
         }
        }
       }
      }
     }
    }
   }
  }
 }
 JOINT RightHip
 {
  OFFSET -7.771700 -0.012900 -0.001300
  CHANNELS 3 Yrotation Xrotation Zrotation
  JOINT RightKnee
  {
   OFFSET 0.000000 -40.869800 0.001200
   CHANNELS 3 Yrotation Xrotation Zrotation
   JOINT RightAnkle
   {
    OFFSET 0.000000 -39.717900 0.002100
    CHANNELS 3 Yrotation Xrotation Zrotation
    JOINT RightToe
    {
     OFFSET 0.000000 -4.965400 11.033500
     CHANNELS 3 Yrotation Xrotation Zrotation
     End Site
     {
      OFFSET 0.000000 -1.423100 5.872300
     }
    }
   }
  }
 }
 JOINT LeftHip
 {
  OFFSET 7.771700 -0.012900 -0.001300
  CHANNELS 3 Yrotation Xrotation Zrotation
  JOINT LeftKnee
  {
   OFFSET 0.000000 -40.869800 0.001200
   CHANNELS 3 Yrotation Xrotation Zrotation
   JOINT LeftAnkle
   {
    OFFSET 0.000000 -39.717900 0.002100
    CHANNELS 3 Yrotation Xrotation Zrotation
    JOINT LeftToe
    {
     OFFSET 0.000000 -4.965400 11.033500
     CHANNELS 3 Yrotation Xrotation Zrotation
     End Site
     {
      OFFSET 0.000000 -1.423100 5.872300
     }
    }
   }
  }
 }
}
MOTION
Frames: 12
Frame Time: 0.008333
-16.283224 60.355973 30.459120 163.941791 -15.456215 2.801110 1.941879 11.141588 0.444036 0.113451 0.773384 0.047631 0.232880 1.304632 0.072514 1.889126 10.225686 0.719185 1.568480 22.562182 -0.819556 1.873514 -1.549696 -1.239350 3.552160 4.322981 -3.219532 -9.621106 -11.306339 -3.432077 168.809390 -83.261483 -167.422702 2.653024 5.682797 -29.361584 -6.513620 0.877830 -5.257311 23.214772 -5.110789 0.192562 -163.787591 -83.716846 155.393987 -4.997082 3.720407 10.388190 -4.983548 -54.774036 0.191230 -23.028830 72.238539 -18.760380 2.394922 -4.795122 -4.404325 -0.160446 -0.429273 -0.019346 10.209578 -53.123501 -3.879582 26.954275 65.997774 26.600001 -17.151933 -16.604145 0.560342 0.635115 0.461124 0.056683
-16.273190 60.352717 30.455564 163.945505 -15.466861 2.793469 1.960261 11.135135 0.448362 0.136956 0.759423 0.040875 0.212828 1.322115 0.079563 1.899585 10.224951 0.712968 1.563790 22.588367 -0.813891 1.867533 -1.518787 -1.232345 3.584967 4.306348 -3.217068 -9.640383 -11.304390 -3.443968 168.843399 -83.245240 -167.455985 2.656929 5.695178 -29.349480 -6.537855 0.891757 -5.238028 23.295213 -5.135092 0.169151 -164.467400 -83.688631 156.051514 -4.988864 3.608458 10.305711 -4.953095 -54.769055 0.196787 -23.084945 72.248432 -18.830827 2.391582 -4.802963 -4.387390 -0.177160 -0.431182 -0.016447 10.097578 -53.117546 -3.845574 27.028849 65.982747 26.701439 -17.078701 -16.616250 0.552220 0.668480 0.466534 0.058780
-16.263771 60.349398 30.451222 163.946699 -15.477295 2.790692 1.975932 11.123782 0.445914 0.137835 0.758252 0.040606 0.219472 1.328402 0.080767 1.909515 10.222393 0.710947 1.556607 22.615532 -0.811916 1.863918 -1.453373 -1.242636 3.571410 4.316017 -3.204112 -9.617680 -11.328576 -3.465708 168.864398 -83.238694 -167.479895 2.645672 5.729374 -29.370666 -6.542730 0.904719 -5.220646 23.351710 -5.152905 0.153416 -165.360850 -83.672493 156.914423 -4.985533 3.430675 10.186205 -4.908816 -54.762877 0.188921 -23.130946 72.257991 -18.886958 2.386379 -4.816797 -4.371307 -0.192846 -0.427178 -0.013585 9.990589 -53.112111 -3.813370 27.103855 65.970167 26.803391 -17.036692 -16.624266 0.544394 0.680540 0.467424 0.060160
-16.255502 60.346377 30.445102 163.941931 -15.491671 2.797459 1.992558 11.112044 0.433038 0.138877 0.755642 0.040095 0.224297 1.332850 0.083090 1.922238 10.214673 0.708959 1.555699 22.646681 -0.819620 1.848271 -1.399645 -1.229515 3.559539 4.337839 -3.190634 -9.605091 -11.354062 -3.481198 168.892166 -83.231894 -167.501918 2.655566 5.720785 -29.341328 -6.518160 0.914015 -5.201172 23.361145 -5.144127 0.149539 -166.478734 -83.656019 157.997986 -4.994216 3.160341 10.000232 -4.845054 -54.752175 0.160629 -23.159021 72.269929 -18.922541 2.390429 -4.836021 -4.370156 -0.197720 -0.421779 -0.022095 9.947667 -53.099927 -3.802374 27.088611 65.970580 26.843244 -17.123281 -16.625717 0.532579 0.665535 0.462817 0.070840
-16.245477 60.343085 30.440206 163.931200 -15.496278 2.791382 2.015631 11.094809 0.435931 0.144845 0.741721 0.034883 0.220598 1.335554 0.084586 1.969333 10.138540 0.683532 1.524867 22.749823 -0.772881 1.843691 -1.354232 -1.234882 3.559064 4.387655 -3.154748 -9.632982 -11.332732 -3.483031 168.919871 -83.228731 -167.518344 2.681322 5.650624 -29.267906 -6.566526 1.022680 -5.162694 23.407287 -5.153316 0.140374 -167.766875 -83.626583 159.227362 -5.021143 2.788717 9.702938 -4.798649 -54.750373 0.158026 -23.190211 72.280982 -18.957309 2.389759 -4.848155 -4.354954 -0.216091 -0.419025 -0.022784 9.893333 -53.100008 -3.772460 27.085284 65.969384 26.891892 -17.162889 -16.626235 0.515034 0.685998 0.459740 0.086731
-16.239237 60.339671 30.436109 163.937264 -15.485593 2.798538 2.012820 11.076476 0.424527 0.162321 0.705012 0.020319 0.218928 1.337434 0.088098 2.007823 10.068920 0.662012 1.520950 22.805467 -0.774802 1.813785 -1.262282 -1.181326 3.517706 4.478327 -3.104437 -9.630032 -11.335529 -3.488544 168.982010 -83.208578 -167.558433 2.692664 5.605978 -29.231506 -6.585508 1.113398 -5.121702 23.421883 -5.133542 0.133400 -169.122272 -83.567688 160.490287 -5.064766 2.321092 9.264171 -4.749668 -54.766679 0.128345 -23.212839 72.294699 -18.984245 2.380770 -4.865412 -4.343835 -0.225184 -0.412741 -0.020260 9.734487 -53.119651 -3.742635 27.273454 65.941494 27.074509 -17.035654 -16.606638 0.499006 0.669020 0.439824 0.071848
-16.229781 60.336885 30.431619 163.943450 -15.477975 2.785162 2.028746 11.029929 0.422300 0.170640 0.689506 0.018701 0.238864 1.284260 0.070973 2.026092 10.059774 0.671459 1.491451 22.898713 -0.740225 1.804195 -1.224261 -1.169801 3.470977 4.570022 -3.057867 -9.624693 -11.337185 -3.494730 169.115700 -83.196897 -167.674599 2.700232 5.569662 -29.210937 -6.595695 1.201635 -5.081914 23.423318 -5.099664 0.117762 -170.465260 -83.475549 161.695337 -5.119548 1.770428 8.675068 -4.744208 -54.776856 0.142817 -23.240930 72.308466 -19.022245 2.386774 -4.879960 -4.328234 -0.226335 -0.416611 -0.044968 9.601725 -53.135514 -3.699577 27.386160 65.922873 27.198046 -16.907085 -16.593771 0.482128 0.704790 0.431939 0.079272
-16.219125 60.334436 30.428306 163.938554 -15.461287 2.763747 2.064942 10.965893 0.430822 0.174418 0.675133 0.020589 0.233710 1.292929 0.072658 2.068966 9.981589 0.661310 1.474012 22.962881 -0.730029 1.776815 -1.143077 -1.127949 3.434291 4.597298 -3.027598 -9.619859 -11.279417 -3.501261 169.215148 -83.222891 -167.777552 2.710184 5.555118 -29.205198 -6.553380 1.284573 -5.000552 23.347041 -5.022548 0.078799 -171.920311 -83.365340 162.988619 -5.174092 1.166572 7.951473 -4.764054 -54.792510 0.187150 -23.223366 72.320855 -19.020936 2.396681 -4.889906 -4.310092 -0.251715 -0.416723 -0.058674 9.497705 -53.159610 -3.650151 27.461101 65.910222 27.291139 -16.796150 -16.581942 0.462590 0.760834 0.429286 0.102251
-16.213461 60.333136 30.422847 163.921822 -15.446791 2.776314 2.128073 10.855589 0.405577 0.152437 0.707107 0.033040 0.245724 1.259903 0.066530 2.094629 9.943910 0.663448 1.456621 23.026640 -0.722765 1.733892 -1.000910 -1.111209 3.382931 4.658236 -3.002639 -9.609765 -11.247669 -3.504230 169.243144 -83.259152 -167.809723 2.669421 5.463067 -29.168890 -6.517252 1.377391 -4.918649 23.323985 -4.925001 0.002954 -173.391271 -83.223093 164.212799 -5.206835 0.552927 7.131393 -4.708201 -54.807346 0.166627 -23.237146 72.325560 -19.039684 2.377756 -4.905285 -4.299203 -0.249380 -0.408154 -0.055623 9.453837 -53.174181 -3.643147 27.510376 65.900255 27.366352 -16.829234 -16.557846 0.443345 0.727503 0.415370 0.117571
-16.211464 60.333444 30.413580 163.910084 -15.449184 2.814242 2.155529 10.789119 0.362216 0.140639 0.744998 0.039895 0.259269 1.213856 0.059678 2.120633 9.895479 0.663751 1.434364 23.100080 -0.713415 1.708267 -0.913794 -1.096275 3.341822 4.682440 -2.997185 -9.586853 -11.182600 -3.515117 170.131488 -83.348763 -168.663566 2.673119 5.340305 -29.192694 -6.483005 1.457334 -4.837185 23.326080 -4.801733 -0.078063 -175.103817 -83.073456 165.627160 -5.203181 -0.026921 6.272401 -4.617090 -54.804887 0.096011 -23.296691 72.328911 -19.101992 2.359983 -4.939083 -4.291481 -0.231831 -0.390690 -0.055061 9.441026 -53.166901 -3.667504 27.536371 65.893642 27.424438 -16.977834 -16.523820 0.423622 0.631484 0.385227 0.114098
-16.205256 60.333921 30.405784 163.904633 -15.451676 2.823512 2.166982 10.737499 0.349163 0.142378 0.767004 0.041594 0.255141 1.226998 0.062198 2.147186 9.802740 0.657518 1.416008 23.165681 -0.712787 1.688769 -0.835705 -1.091573 3.307977 4.647344 -3.016266 -9.571596 -11.034025 -3.506088 171.179532 -83.459776 -169.669331 2.649698 5.191060 -29.236829 -6.443456 1.511864 -4.745712 23.325020 -4.654740 -0.155425 -177.147671 -82.954199 167.349194 -5.156259 -0.543564 5.434518 -4.596761 -54.802502 0.082138 -23.324406 72.338946 -19.138954 2.368362 -4.955664 -4.281407 -0.241763 -0.389927 -0.064332 9.387062 -53.164611 -3.654789 27.596761 65.885559 27.494650 -16.982447 -16.494794 0.411670 0.623914 0.372169 0.123014
-16.196776 60.334389 30.399007 163.896798 -15.454996 2.818044 2.173303 10.688919 0.352714 0.155005 0.759475 0.038627 0.256849 1.216927 0.061915 2.150655 9.774568 0.664141 1.405641 23.241493 -0.712824 1.674154 -0.786968 -1.109517 3.284807 4.544367 -3.066384 -9.495995 -10.781863 -3.505332 172.671181 -83.582791 -171.163253 2.577994 5.021203 -29.311761 -6.398869 1.545471 -4.639836 23.320993 -4.480006 -0.231079 -179.538608 -82.885751 169.401141 -5.054895 -0.989263 4.674197 -4.582209 -54.794310 0.087365 -23.357866 72.344394 -19.172679 2.369839 -4.973640 -4.272899 -0.245258 -0.386734 -0.072535 9.315709 -53.164064 -3.617186 27.687720 65.875996 27.565085 -16.889649 -16.463863 0.423721 0.632129 0.370943 0.132203
